<svg width="193" height="1198" viewBox="0 0 193 1198" fill="none" xmlns="http://www.w3.org/2000/svg">
<g clip-path="url(#clip0_193_342)">
<g filter="url(#filter0_d_193_342)">
<path d="M154.762 1400.26L170.762 1352.66C186.762 1305.05 218.762 1209.85 213.462 1114.64C207.762 1019.44 165.762 924.232 176.062 829.026C186.762 733.821 250.762 638.616 245.462 543.411C239.762 448.205 165.762 353 122.762 257.795C79.7621 162.589 69.7621 67.3841 64.0621 19.7815L58.7621 -27.8212L346.762 -27.8212L346.762 19.7814C346.762 67.3841 346.762 162.589 346.762 257.795C346.762 353 346.762 448.205 346.762 543.411C346.762 638.616 346.762 733.821 346.762 829.026C346.762 924.232 346.762 1019.44 346.762 1114.64C346.762 1209.85 346.762 1305.05 346.762 1352.66L346.762 1400.26L154.762 1400.26Z" fill="url(#paint0_linear_193_342)" shape-rendering="crispEdges"/>
</g>
</g>
<g clip-path="url(#clip1_193_342)" filter="url(#filter1_d_193_342)">
<g filter="url(#filter2_d_193_342)">
<path d="M70.3661 1215.74L66.7396 1179.48C63.4035 1143.25 55.7147 1070.67 75.8423 1001.35C95.5341 931.976 143.042 865.866 166.583 796.946C190.124 728.026 191.151 656.466 195.3 585.273C199.74 514.114 208.03 443.406 231.788 374.512C255.838 305.651 294.631 238.519 314.536 205.013L334.15 171.473L357.391 174.197L353.246 209.551C349.101 244.905 340.812 315.613 332.523 386.321C324.234 457.029 315.944 527.737 307.655 598.445C299.366 669.153 291.077 739.861 282.787 810.569C274.498 881.277 266.209 951.985 257.92 1022.69C249.63 1093.4 241.341 1164.11 237.197 1199.46L233.052 1234.82L70.3661 1215.74Z" fill="url(#paint1_linear_193_342)"/>
</g>
</g>
<defs>
<filter id="filter0_d_193_342" x="54.7621" y="-27.8212" width="296" height="1436.08" filterUnits="userSpaceOnUse" color-interpolation-filters="sRGB">
<feFlood flood-opacity="0" result="BackgroundImageFix"/>
<feColorMatrix in="SourceAlpha" type="matrix" values="0 0 0 0 0 0 0 0 0 0 0 0 0 0 0 0 0 0 127 0" result="hardAlpha"/>
<feOffset dy="4"/>
<feGaussianBlur stdDeviation="2"/>
<feComposite in2="hardAlpha" operator="out"/>
<feColorMatrix type="matrix" values="0 0 0 0 0 0 0 0 0 0 0 0 0 0 0 0 0 0 0.25 0"/>
<feBlend mode="normal" in2="BackgroundImageFix" result="effect1_dropShadow_193_342"/>
<feBlend mode="normal" in="SourceGraphic" in2="effect1_dropShadow_193_342" result="shape"/>
</filter>
<filter id="filter1_d_193_342" x="-3.35645" y="146.951" width="364.747" height="1095.86" filterUnits="userSpaceOnUse" color-interpolation-filters="sRGB">
<feFlood flood-opacity="0" result="BackgroundImageFix"/>
<feColorMatrix in="SourceAlpha" type="matrix" values="0 0 0 0 0 0 0 0 0 0 0 0 0 0 0 0 0 0 127 0" result="hardAlpha"/>
<feOffset dy="4"/>
<feGaussianBlur stdDeviation="2"/>
<feComposite in2="hardAlpha" operator="out"/>
<feColorMatrix type="matrix" values="0 0 0 0 0 0 0 0 0 0 0 0 0 0 0 0 0 0 0.25 0"/>
<feBlend mode="normal" in2="BackgroundImageFix" result="effect1_dropShadow_193_342"/>
<feBlend mode="normal" in="SourceGraphic" in2="effect1_dropShadow_193_342" result="shape"/>
</filter>
<filter id="filter2_d_193_342" x="62.484" y="171.473" width="308.907" height="1082.34" filterUnits="userSpaceOnUse" color-interpolation-filters="sRGB">
<feFlood flood-opacity="0" result="BackgroundImageFix"/>
<feColorMatrix in="SourceAlpha" type="matrix" values="0 0 0 0 0 0 0 0 0 0 0 0 0 0 0 0 0 0 127 0" result="hardAlpha"/>
<feOffset dx="10" dy="15"/>
<feGaussianBlur stdDeviation="2"/>
<feComposite in2="hardAlpha" operator="out"/>
<feColorMatrix type="matrix" values="0 0 0 0 0 0 0 0 0 0 0 0 0 0 0 0 0 0 0.25 0"/>
<feBlend mode="normal" in2="BackgroundImageFix" result="effect1_dropShadow_193_342"/>
<feBlend mode="normal" in="SourceGraphic" in2="effect1_dropShadow_193_342" result="shape"/>
</filter>
<linearGradient id="paint0_linear_193_342" x1="58.7621" y1="686.219" x2="346.762" y2="686.219" gradientUnits="userSpaceOnUse">
<stop stop-color="#5D536D" stop-opacity="0.4"/>
<stop offset="1" stop-color="#5D536D"/>
</linearGradient>
<linearGradient id="paint1_linear_193_342" x1="357" y1="627.5" x2="-307" y2="1258.5" gradientUnits="userSpaceOnUse">
<stop stop-color="#5D536D"/>
<stop offset="1" stop-color="#131826"/>
</linearGradient>
<clipPath id="clip0_193_342">
<rect width="1428.08" height="320" fill="white" transform="translate(26.7621 1400.26) rotate(-90)"/>
</clipPath>
<clipPath id="clip1_193_342">
<rect width="1067.88" height="234" fill="white" transform="translate(0.643555 1207.57) rotate(-83.3136)"/>
</clipPath>
</defs>
</svg>
